<?xml version="1.0" standalone="no"?>
<!DOCTYPE svg PUBLIC "-//W3C//DTD SVG 20010904//EN"
 "http://www.w3.org/TR/2001/REC-SVG-20010904/DTD/svg10.dtd">
<svg version="1.0" xmlns="http://www.w3.org/2000/svg"
 width="700.000000pt" height="700.000000pt" viewBox="0 0 700.000000 700.000000"
 preserveAspectRatio="xMidYMid meet">
<metadata>
Created by potrace 1.14, written by Peter Selinger 2001-2017
</metadata>
<g transform="translate(0.000000,700.000000) scale(0.100000,-0.100000)"
fill="#000000" stroke="none">
<path d="M3355 6993 c-200 -41 -355 -148 -458 -316 -38 -62 -87 -198 -87 -242
0 -44 -9 -55 -37 -44 -73 27 -250 29 -345 3 -234 -64 -408 -239 -470 -472 -19
-74 -20 -110 -23 -977 -1 -495 -3 -903 -4 -906 0 -3 -40 -6 -88 -6 -151 0
-236 -18 -343 -73 -145 -74 -268 -221 -322 -385 -18 -56 -22 -93 -23 -180 0
-123 2 -131 51 -300 20 -66 37 -127 39 -135 2 -8 29 -103 60 -210 31 -107 65
-224 75 -260 10 -36 30 -105 45 -155 15 -49 33 -112 40 -140 71 -262 222 -761
255 -845 124 -312 311 -580 565 -806 72 -64 213 -173 257 -199 10 -5 57 -33
105 -61 242 -142 532 -238 823 -271 124 -15 541 -5 570 12 3 2 26 6 50 10 147
21 400 104 560 185 138 70 137 69 245 142 243 162 445 365 608 613 63 96 159
282 196 380 13 33 27 69 32 80 9 22 56 184 63 219 3 11 9 44 15 71 15 69 19
99 28 180 5 38 8 824 8 1745 l0 1675 -28 79 c-73 206 -225 355 -432 422 -102
33 -254 37 -355 9 -181 -50 -338 -176 -418 -335 -76 -153 -75 -145 -76 -767
-1 -487 -3 -552 -16 -549 -116 33 -279 33 -381 1 -16 -5 -19 -1 -20 22 0 15
-1 516 -1 1113 -1 851 -4 1098 -14 1148 -17 79 -53 178 -70 193 -8 6 -14 16
-14 21 0 17 -87 121 -133 159 -121 102 -249 150 -407 154 -58 1 -114 1 -125
-2z m190 -462 c51 -23 101 -79 114 -128 7 -26 11 -426 11 -1221 0 -1171 0
-1183 -20 -1177 -64 20 -152 30 -268 29 l-132 -1 0 1166 c0 783 4 1178 11
1204 22 81 111 147 199 147 25 0 63 -9 85 -19z m-870 -580 c41 -17 83 -58 107
-106 21 -40 21 -50 20 -910 0 -478 -1 -877 -1 -885 -1 -14 -29 -16 -208 -15
l-208 0 -1 870 c0 917 0 924 45 981 57 73 159 100 246 65z m2596 -559 c45 -18
97 -71 115 -118 16 -42 17 -154 17 -1612 0 -862 -3 -1605 -7 -1652 -46 -547
-340 -1026 -806 -1313 -124 -76 -333 -166 -445 -192 -11 -2 -39 -9 -63 -15
-162 -39 -448 -50 -617 -24 -258 41 -484 128 -695 269 -122 82 -146 101 -261
215 -219 217 -362 474 -453 810 -19 71 -83 296 -95 335 -24 75 -326 1129 -344
1200 -28 110 -20 159 36 221 32 34 54 49 89 58 35 9 271 12 910 11 l863 0 47
-28 c87 -51 125 -151 94 -243 -21 -62 -54 -100 -109 -124 -40 -18 -77 -19
-640 -21 l-598 -1 -51 -27 c-67 -34 -105 -82 -120 -154 -21 -98 25 -194 117
-245 25 -14 67 -18 237 -20 143 -2 210 -7 216 -15 57 -72 148 -301 188 -472
18 -80 23 -116 39 -269 10 -101 73 -182 161 -206 149 -42 288 67 285 224 -1
34 -3 77 -6 96 -3 19 -7 53 -10 75 -14 131 -78 371 -131 497 -14 33 -24 62
-22 64 2 2 79 4 171 4 109 1 186 7 222 16 61 16 75 13 75 -17 0 -36 48 -164
84 -225 129 -221 401 -352 654 -314 148 23 283 91 380 194 51 54 122 156 122
176 0 6 6 21 14 33 7 12 19 45 26 72 6 28 14 59 17 70 3 11 6 585 7 1275 l1
1255 24 42 c52 91 166 132 262 95z m-860 -1648 c54 -22 106 -85 117 -143 5
-25 9 -222 8 -437 l-1 -391 -30 -49 c-43 -69 -119 -108 -193 -100 -90 11 -138
45 -175 126 -19 42 -20 65 -20 445 l0 401 24 48 c13 27 35 57 49 67 14 10 31
24 38 29 16 14 90 28 120 23 13 -2 41 -11 63 -19z"/>
</g>
</svg>
